<svg width="28" height="28" viewBox="0 0 28 28" fill="none" xmlns="http://www.w3.org/2000/svg">
<g id="call">
<path id="Vector" d="M6.49951 9.20154C6.16526 7.00004 7.71751 5.02254 10.0888 4.29804C10.5096 4.17025 10.9632 4.20728 11.3577 4.40161C11.7523 4.59594 12.0581 4.93304 12.2133 5.34454L12.9745 7.37454C13.0971 7.70111 13.1192 8.05685 13.0381 8.39611C12.9571 8.73537 12.7765 9.04265 12.5195 9.27854L10.255 11.3523C10.1432 11.4546 10.06 11.5842 10.0133 11.7284C9.96672 11.8726 9.95833 12.0264 9.98901 12.1748L10.01 12.2658L10.0643 12.4933C10.3466 13.5984 10.7756 14.6608 11.34 15.652C11.9562 16.7045 12.72 17.6633 13.608 18.4993L13.678 18.5623C13.7911 18.6626 13.9282 18.732 14.076 18.7636C14.2238 18.7952 14.3773 18.7879 14.5215 18.7425L17.4493 17.8203C17.782 17.7158 18.1383 17.7131 18.4726 17.8126C18.8069 17.9121 19.1038 18.1092 19.3253 18.3785L20.7113 20.0603C21.2888 20.7603 21.2188 21.7893 20.5555 22.407C18.7408 24.0993 16.2453 24.4458 14.5093 23.051C12.3804 21.3355 10.5864 19.2419 9.21726 16.8753C7.83474 14.5119 6.91375 11.9081 6.49951 9.20154ZM11.823 12.2903L13.699 10.5683C14.2132 10.0967 14.5748 9.48224 14.7372 8.80372C14.8997 8.12519 14.8556 7.4136 14.6108 6.76029L13.8513 4.73029C13.5397 3.90214 12.9245 3.22364 12.1308 2.83263C11.3371 2.44161 10.4242 2.36739 9.57776 2.62504C6.63251 3.52629 4.26826 6.16704 4.76876 9.46579C5.11876 11.7688 5.92551 14.6983 7.70526 17.7573C9.18246 20.309 11.1177 22.5664 13.4138 24.416C16.0178 26.5073 19.4933 25.7933 21.7508 23.6898C22.3967 23.0883 22.7888 22.2631 22.847 21.3824C22.9052 20.5017 22.6252 19.632 22.064 18.9508L20.678 17.2673C20.2346 16.7291 19.6406 16.3357 18.9721 16.1374C18.3036 15.9391 17.5911 15.945 16.926 16.1543L14.4953 16.919C13.8676 16.272 13.3179 15.5537 12.8573 14.7788C12.4128 13.9952 12.066 13.16 11.8248 12.292" fill="#0C0C0C"/>
</g>
</svg>
