<svg width="28" height="28" viewBox="0 0 28 28" fill="none" xmlns="http://www.w3.org/2000/svg">
<path d="M10.5 14C11.8924 14 13.2277 13.4469 14.2123 12.4623C15.1969 11.4777 15.75 10.1424 15.75 8.75C15.75 7.35761 15.1969 6.02226 14.2123 5.03769C13.2277 4.05312 11.8924 3.5 10.5 3.5C9.10761 3.5 7.77226 4.05312 6.78769 5.03769C5.80312 6.02226 5.25 7.35761 5.25 8.75C5.25 10.1424 5.80312 11.4777 6.78769 12.4623C7.77226 13.4469 9.10761 14 10.5 14ZM14 8.75C14 9.67826 13.6313 10.5685 12.9749 11.2249C12.3185 11.8813 11.4283 12.25 10.5 12.25C9.57174 12.25 8.6815 11.8813 8.02513 11.2249C7.36875 10.5685 7 9.67826 7 8.75C7 7.82174 7.36875 6.9315 8.02513 6.27513C8.6815 5.61875 9.57174 5.25 10.5 5.25C11.4283 5.25 12.3185 5.61875 12.9749 6.27513C13.6313 6.9315 14 7.82174 14 8.75ZM21 22.75C21 24.5 19.25 24.5 19.25 24.5H1.75C1.75 24.5 0 24.5 0 22.75C0 21 1.75 15.75 10.5 15.75C19.25 15.75 21 21 21 22.75ZM19.25 22.743C19.2482 22.3125 18.9805 21.0175 17.794 19.831C16.653 18.69 14.5057 17.5 10.5 17.5C6.49425 17.5 4.347 18.69 3.206 19.831C2.0195 21.0175 1.7535 22.3125 1.75 22.743H19.25Z" fill="#0C0C0C"/>
<path fill-rule="evenodd" clip-rule="evenodd" d="M23.625 8.75C23.8571 8.75 24.0796 8.84219 24.2437 9.00628C24.4078 9.17038 24.5 9.39294 24.5 9.625V12.25H27.125C27.3571 12.25 27.5796 12.3422 27.7437 12.5063C27.9078 12.6704 28 12.8929 28 13.125C28 13.3571 27.9078 13.5796 27.7437 13.7437C27.5796 13.9078 27.3571 14 27.125 14H24.5V16.625C24.5 16.8571 24.4078 17.0796 24.2437 17.2437C24.0796 17.4078 23.8571 17.5 23.625 17.5C23.3929 17.5 23.1704 17.4078 23.0063 17.2437C22.8422 17.0796 22.75 16.8571 22.75 16.625V14H20.125C19.8929 14 19.6704 13.9078 19.5063 13.7437C19.3422 13.5796 19.25 13.3571 19.25 13.125C19.25 12.8929 19.3422 12.6704 19.5063 12.5063C19.6704 12.3422 19.8929 12.25 20.125 12.25H22.75V9.625C22.75 9.39294 22.8422 9.17038 23.0063 9.00628C23.1704 8.84219 23.3929 8.75 23.625 8.75Z" fill="#0C0C0C"/>
</svg>
