<svg width="28" height="28" viewBox="0 0 28 28" fill="none" xmlns="http://www.w3.org/2000/svg">
<g id="setting">
<path id="Vector" d="M16.3704 2.33337C16.5514 2.33338 16.7278 2.38938 16.874 2.49331C17.0203 2.59724 17.129 2.74374 17.1844 2.91171L18.125 5.76004C18.5201 5.94837 18.898 6.16004 19.2589 6.39837L22.2619 5.76837C22.439 5.73153 22.6235 5.75041 22.7888 5.8223C22.9542 5.89418 23.0919 6.01536 23.182 6.16837L25.5523 10.1667C25.6428 10.3196 25.6812 10.4966 25.6618 10.6722C25.6424 10.8477 25.5664 11.0127 25.4446 11.1434L23.3838 13.36C23.4138 13.7851 23.4138 14.2117 23.3838 14.6367L25.4446 16.8567C25.5664 16.9874 25.6424 17.1524 25.6618 17.3279C25.6812 17.5035 25.6428 17.6804 25.5523 17.8334L23.182 21.8334C23.0916 21.9861 22.9538 22.1069 22.7885 22.1785C22.6232 22.2501 22.4388 22.2687 22.2619 22.2317L19.2589 21.6017C18.8997 21.8384 18.5201 22.0517 18.1267 22.24L17.1844 25.0884C17.129 25.2563 17.0203 25.4028 16.874 25.5068C16.7278 25.6107 16.5514 25.6667 16.3704 25.6667H11.6297C11.4487 25.6667 11.2723 25.6107 11.126 25.5068C10.9797 25.4028 10.8711 25.2563 10.8157 25.0884L9.87679 22.2417C9.48282 22.0539 9.1028 21.8395 8.73952 21.6L5.73815 22.2317C5.56109 22.2686 5.37659 22.2497 5.21125 22.1778C5.0459 22.1059 4.90823 21.9847 4.81807 21.8317L2.44776 17.8334C2.35725 17.6804 2.31891 17.5035 2.33827 17.3279C2.35764 17.1524 2.4337 16.9874 2.5555 16.8567L4.61627 14.6367C4.58641 14.2128 4.58641 13.7873 4.61627 13.3634L2.5555 11.1434C2.4337 11.0127 2.35764 10.8477 2.33827 10.6722C2.31891 10.4966 2.35725 10.3196 2.44776 10.1667L4.81807 6.16671C4.90848 6.014 5.04625 5.89317 5.21158 5.82159C5.37691 5.75001 5.56127 5.73138 5.73815 5.76837L8.73952 6.40004C9.10208 6.16171 9.48174 5.94671 9.87679 5.75837L10.8174 2.91171C10.8726 2.74428 10.9808 2.59817 11.1264 2.49429C11.272 2.39041 11.4476 2.33408 11.628 2.33337H16.3686H16.3704ZM15.7444 4.00004H12.2557L11.2843 6.94504L10.6293 7.25671C10.3073 7.41026 9.99643 7.58512 9.69893 7.78004L9.09353 8.18004L5.98784 7.52671L4.24345 10.4734L6.37263 12.77L6.32132 13.4767C6.29674 13.8252 6.29674 14.1749 6.32132 14.5234L6.37263 15.23L4.24003 17.5267L5.98613 20.4734L9.09182 19.8217L9.69722 20.22C9.99472 20.415 10.3056 20.5898 10.6276 20.7434L11.2826 21.055L12.2557 24H15.7478L16.7227 21.0534L17.3759 20.7434C17.6976 20.5902 18.0079 20.4153 18.3046 20.22L18.9083 19.8217L22.0157 20.4734L23.7601 17.5267L21.6292 15.23L21.6805 14.5234C21.7051 14.1743 21.7051 13.8241 21.6805 13.475L21.6292 12.7684L23.7618 10.4734L22.0157 7.52671L18.9083 8.17671L18.3046 7.78004C18.0079 7.58476 17.6976 7.40989 17.3759 7.25671L16.7227 6.94671L15.7461 4.00004H15.7444ZM14 9.00004C15.3607 9.00004 16.6657 9.52683 17.6279 10.4645C18.5901 11.4022 19.1306 12.674 19.1306 14C19.1306 15.3261 18.5901 16.5979 17.6279 17.5356C16.6657 18.4733 15.3607 19 14 19C12.6393 19 11.3344 18.4733 10.3722 17.5356C9.41003 16.5979 8.86949 15.3261 8.86949 14C8.86949 12.674 9.41003 11.4022 10.3722 10.4645C11.3344 9.52683 12.6393 9.00004 14 9.00004ZM14 10.6667C13.0929 10.6667 12.2229 11.0179 11.5815 11.643C10.94 12.2681 10.5797 13.116 10.5797 14C10.5797 14.8841 10.94 15.7319 11.5815 16.3571C12.2229 16.9822 13.0929 17.3334 14 17.3334C14.9072 17.3334 15.7772 16.9822 16.4186 16.3571C17.06 15.7319 17.4204 14.8841 17.4204 14C17.4204 13.116 17.06 12.2681 16.4186 11.643C15.7772 11.0179 14.9072 10.6667 14 10.6667Z" fill="#0C0C0C"/>
</g>
</svg>
