<svg width="28" height="28" viewBox="0 0 28 28" fill="none" xmlns="http://www.w3.org/2000/svg">
<g id="heroicons-solid:thumb-up">
<path id="Vector" d="M2.80005 14.6999C2.80005 14.4242 2.85437 14.1511 2.9599 13.8963C3.06544 13.6415 3.22012 13.41 3.41512 13.215C3.61013 13.02 3.84163 12.8653 4.09641 12.7598C4.3512 12.6542 4.62427 12.5999 4.90005 12.5999C5.17582 12.5999 5.4489 12.6542 5.70368 12.7598C5.95847 12.8653 6.18997 13.02 6.38497 13.215C6.57998 13.41 6.73466 13.6415 6.8402 13.8963C6.94573 14.1511 7.00005 14.4242 7.00005 14.6999V23.0999C7.00005 23.6569 6.7788 24.191 6.38497 24.5849C5.99115 24.9787 5.457 25.1999 4.90005 25.1999C4.34309 25.1999 3.80895 24.9787 3.41512 24.5849C3.0213 24.191 2.80005 23.6569 2.80005 23.0999V14.6999ZM8.40005 14.4661V22.0681C8.39981 22.5885 8.54456 23.0986 8.81806 23.5412C9.09156 23.9839 9.483 24.3415 9.94845 24.5741L10.0184 24.6091C10.7953 24.9974 11.6518 25.1997 12.5202 25.1999H20.1026C20.7502 25.2002 21.3778 24.976 21.8786 24.5655C22.3795 24.1551 22.7225 23.5837 22.8494 22.9487L24.5294 14.5487C24.6106 14.1425 24.6007 13.7234 24.5003 13.3215C24.4 12.9197 24.2117 12.5451 23.9491 12.2247C23.6865 11.9044 23.3561 11.6463 22.9817 11.4691C22.6073 11.2919 22.1983 11.2 21.784 11.1999H16.8V5.59993C16.8 4.85732 16.505 4.14513 15.9799 3.62003C15.4548 3.09493 14.7427 2.79993 14 2.79993C13.6287 2.79993 13.2727 2.94743 13.0101 3.20998C12.7475 3.47253 12.6 3.82862 12.6 4.19993V5.13373C12.6 6.3454 12.2071 7.52439 11.48 8.49373L9.52005 11.1061C8.79305 12.0755 8.40005 13.2545 8.40005 14.4661Z" fill="#0A7CFF"/>
</g>
</svg>
