<svg width="28" height="28" viewBox="0 0 28 28" fill="none" xmlns="http://www.w3.org/2000/svg">
<g id="video">
<path id="Vector" d="M6.125 5.25C4.96468 5.25 3.85188 5.71094 3.03141 6.53141C2.21094 7.35188 1.75 8.46468 1.75 9.625V18.375C1.75 19.5353 2.21094 20.6481 3.03141 21.4686C3.85188 22.2891 4.96468 22.75 6.125 22.75H14.875C16.0353 22.75 17.1481 22.2891 17.9686 21.4686C18.7891 20.6481 19.25 19.5353 19.25 18.375V18.1528L22.8112 20.6115C23.1395 20.838 23.5234 20.9705 23.9215 20.9946C24.3195 21.0187 24.7166 20.9336 25.0698 20.7483C25.423 20.5631 25.7188 20.2848 25.9253 19.9436C26.1317 19.6025 26.241 19.2113 26.2412 18.8125V9.191C26.241 8.7922 26.1317 8.40105 25.9253 8.05985C25.7188 7.71866 25.423 7.4404 25.0698 7.25516C24.7166 7.06992 24.3195 6.98476 23.9215 7.00888C23.5234 7.033 23.1395 7.16548 22.8112 7.392L19.25 9.85075V9.625C19.25 8.46468 18.7891 7.35188 17.9686 6.53141C17.1481 5.71094 16.0353 5.25 14.875 5.25H6.125ZM19.25 11.977L23.807 8.8305C23.8727 8.78516 23.9495 8.75866 24.0292 8.75387C24.1089 8.74907 24.1884 8.76616 24.259 8.80329C24.3297 8.84043 24.3888 8.89618 24.4301 8.96452C24.4713 9.03286 24.4931 9.11118 24.493 9.191V18.8125C24.4928 18.8922 24.4708 18.9703 24.4294 19.0384C24.388 19.1064 24.3288 19.1619 24.2582 19.1989C24.1876 19.2358 24.1083 19.2527 24.0288 19.2479C23.9493 19.243 23.8726 19.2165 23.807 19.1712L19.25 16.0265V11.977ZM3.5 9.625C3.5 8.92881 3.77656 8.26113 4.26884 7.76884C4.76113 7.27656 5.42881 7 6.125 7H14.875C15.5712 7 16.2389 7.27656 16.7312 7.76884C17.2234 8.26113 17.5 8.92881 17.5 9.625V18.375C17.5 19.0712 17.2234 19.7389 16.7312 20.2312C16.2389 20.7234 15.5712 21 14.875 21H6.125C5.42881 21 4.76113 20.7234 4.26884 20.2312C3.77656 19.7389 3.5 19.0712 3.5 18.375V9.625Z" fill="#0C0C0C"/>
</g>
</svg>
